HIERARCHY
ROOT pelvis
{
  OFFSET 0 100 0
  CHANNELS 6 Xposition Yposition Zposition Zrotation Xrotation Yrotation
  JOINT pelvis_right_femur
  {
    OFFSET -10.78128 -3.44521 -0.5502486
    CHANNELS 3 Zrotation Xrotation Yrotation
    JOINT right_femur_tibia
    {
      OFFSET -0.8047443 -44.0398 -0.1307829
      CHANNELS 3 Zrotation Xrotation Yrotation
      JOINT right_tibia_foot
      {
        OFFSET 3.006224 -47.83518 -5
        CHANNELS 3 Zrotation Xrotation Yrotation
        End Site
        {
          OFFSET 0 -5 15
        }
      }
    }
  }
  JOINT pelvis_left_femur
  {
    OFFSET 10.78128 -3.44521 -0.5502486
    CHANNELS 3 Zrotation Xrotation Yrotation
    JOINT left_femur_tibia
    {
      OFFSET 0.8047443 -44.0398 -0.1307829
      CHANNELS 3 Zrotation Xrotation Yrotation
      JOINT left_tibia_foot
      {
        OFFSET -4.370144 -48.10324 -4.275266
        CHANNELS 3 Zrotation Xrotation Yrotation
        End Site
        {
          OFFSET 0 -5 15
        }
      }
    }
  }
  JOINT pelvis_spine1
  {
    OFFSET 0 6.468898 -3.129235
    CHANNELS 3 Zrotation Xrotation Yrotation
    JOINT spine1
    {
      OFFSET 0 23.15396 4.99043
      CHANNELS 3 Zrotation Xrotation Yrotation
      JOINT spine2
      {
        OFFSET 0 20.79997 -5.064912
        CHANNELS 3 Zrotation Xrotation Yrotation
        JOINT neck
        {
          OFFSET 0 14.38658 9.616178
          CHANNELS 3 Zrotation Xrotation Yrotation
          End Site
          {
            OFFSET 0 20 0
          }
        }
      }
      JOINT right_manubrium
      {
        OFFSET -5.722621 16.35077 3.967754
        CHANNELS 3 Zrotation Xrotation Yrotation
        JOINT right_clavicle
        {
          OFFSET -13.16364 1.694482 -4.693211
          CHANNELS 3 Zrotation Xrotation Yrotation
          JOINT right_humerus
          {
            OFFSET -28.5034 -0.3100689 -2.792744
            CHANNELS 3 Zrotation Xrotation Yrotation
            JOINT right_radius
            {
              OFFSET -25.15693 0.02248979 -1.271978
              CHANNELS 3 Zrotation Xrotation Yrotation
              End Site
              {
                OFFSET -15 0 0
              }
            }
          }
        }
      }
      JOINT left_manubrium
      {
        OFFSET 5.722621 16.35077 3.967754
        CHANNELS 3 Zrotation Xrotation Yrotation
        JOINT left_clavicle
        {
          OFFSET 13.16364 1.694482 -4.693211
          CHANNELS 3 Zrotation Xrotation Yrotation
          JOINT left_humerus
          {
            OFFSET 29.39168 -1.063119 -2.237045
            CHANNELS 3 Zrotation Xrotation Yrotation
            JOINT left_radius
            {
              OFFSET 24.59957 -0.9528479 0.9047498
              CHANNELS 3 Zrotation Xrotation Yrotation
              End Site
              {
                OFFSET 15 -0 -0
              }
            }
          }
        }
      }
    }
  }
}
MOTION
Frames: 23
Frame Time: 0.0416666666667
0 103.5113 0 2.454402 -2.271222 0.2547858 0.9888134 -11.13272 7.606159 -0 37.65943 -0 -4.968585 -18.64958 -3.226871 -7.946567 11.46745 -24.04288 -0 4.155906 -0 7.833768 -15.48109 25.84868 -2.423222 -3.885407 4.759665 2.868272 9.840784 -8.045256 1.644442 21.04865 6.541914 2.85619 -26.36967 10.12197 6.350863 -19.60302 11.4232 86.52062 34.51876 -21.17436 -0 0 16.53477 -5.396864 7.577739 3.14197 6.700751 -20.57237 -0.9236863 -95.29703 25.46072 23.6663 0 0 -15.12623 9.759898 17.52469 2.895342
0.2813755 103.5523 1.367397 1.885926 -1.32648 0.3112929 1.91127 -13.49836 8.289654 -0 37.54786 -0 -4.78931 -18.26625 -3.367458 -7.620713 11.2887 -24.02066 -0 4.456285 -0 6.934216 -16.69152 25.83579 -2.433058 -3.881013 4.749663 2.849801 9.840026 -8.02298 1.63947 21.08655 6.522336 2.848556 -26.28818 10.08488 6.365784 -19.56769 11.41844 86.46808 34.48616 -21.09693 -0 0 16.52311 -5.491439 7.608964 3.200222 6.675273 -20.54217 -0.9228085 -95.29877 25.4591 23.64552 0 0 -14.96561 9.667963 17.56962 2.941804
0.5349765 103.4566 3.066495 0.9731696 -0.6946955 0.3153899 3.164797 -17.77798 7.430968 -0 34.71908 -0 -5.70139 -15.41707 -3.072806 -6.947778 11.50378 -22.83192 -0 5.076873 -0 5.546932 -18.69511 24.89762 -1.799422 -3.032291 4.89308 2.788323 9.888667 -8.019496 1.416274 20.72467 6.746387 3.196743 -26.274 9.628371 6.125183 -19.03524 11.45692 86.81652 34.93244 -21.23572 -0 0 15.26441 -6.126759 8.189471 3.675395 6.661528 -21.04322 -1.049163 -94.47157 25.23294 22.96854 0 0 -16.74761 9.459107 16.0433 3.529182
0.7795957 103.3059 4.936698 0.3523248 0.3777394 0.2944062 4.265846 -21.33878 7.709649 -0 32.73765 -0 -5.770646 -14.10348 -2.986524 -6.609375 11.44491 -22.21326 -0 5.267698 -0 5.251891 -19.96535 24.56508 -1.468067 -2.610694 4.958397 2.771061 9.941932 -8.074694 1.287659 20.49044 6.879464 3.393866 -26.26159 9.368256 5.989176 -18.77458 11.49455 87.1179 35.10399 -21.50831 -0 0 14.58683 -6.521501 8.51731 3.922407 6.681563 -21.37886 -1.166326 -93.97723 25.15103 22.55807 0 0 -17.93199 9.237783 15.14005 4.016819
1.026575 102.994 7.113427 -0.1411201 1.387353 0.2858465 5.186051 -25.14865 7.431822 -0 29.33831 -0 -6.029286 -12.18298 -2.650518 -6.375253 11.56403 -21.22117 -0 5.438214 -0 5.441627 -21.12176 24.02887 -1.235839 -2.39631 4.998989 2.805367 9.977259 -8.19287 1.204464 20.24907 7.014986 3.545978 -26.40475 9.26362 5.881702 -18.67495 11.53008 87.49417 35.21117 -22.00688 -0 0 14.17212 -6.589619 8.653791 3.940825 6.76694 -21.69841 -1.281251 -93.68126 25.20827 22.35061 0 0 -19.12177 9.109552 14.49408 4.45081
1.279863 102.527 9.619207 -0.49633 2.475616 0.3302864 5.963966 -28.66778 7.234994 -0 25.72684 -0 -6.161493 -10.41702 -2.279409 -6.269157 11.74279 -20.32827 -0 5.617785 -0 5.833285 -22.11532 23.51628 -1.054194 -2.255355 5.022369 2.845673 10.00691 -8.311686 1.139571 20.02993 7.140869 3.675448 -26.55568 9.203957 5.793724 -18.6164 11.56197 87.84714 35.29568 -22.49943 -0 0 13.84809 -6.614496 8.752406 3.928007 6.861306 -21.98228 -1.387913 -93.43618 25.25988 22.1803 0 0 -20.18506 9.027585 13.96628 4.807864
1.53821 101.9012 12.53388 -0.744153 3.490799 0.4851285 6.557263 -31.84742 6.83604 -0 21.78537 -0 -6.341411 -8.443047 -1.821412 -6.238035 12.12577 -19.3943 -0 6.030978 -0 6.178997 -22.96281 22.82008 -0.8987278 -2.158929 5.035222 2.891431 10.03102 -8.433584 1.084738 19.81762 7.266123 3.795344 -26.72191 9.174673 5.713892 -18.5834 11.59141 88.19591 35.37063 -23.0028 -0 0 13.57281 -6.606056 8.824301 3.893369 6.966069 -22.25139 -1.49157 -93.22076 25.31249 22.03402 0 0 -21.2012 8.97637 13.50131 5.124144
1.797297 101.1677 15.92988 -0.9596899 4.37807 0.815421 7.048071 -34.46151 6.369516 -0 18.09091 -0 -6.572042 -6.365198 -1.353893 -6.212534 12.74131 -18.4957 -0 6.906984 -0 6.153598 -23.58736 21.85301 -0.7654695 -2.074777 5.038606 2.93013 10.05634 -8.541681 1.034499 19.62836 7.379756 3.904345 -26.85125 9.143068 5.643261 -18.54587 11.61912 88.50609 35.43568 -23.44434 -0 0 13.31105 -6.648996 8.913215 3.891809 7.060023 -22.49229 -1.589371 -92.99535 25.32438 21.86256 0 0 -22.10349 8.936595 13.07228 5.38923
2.051411 100.425 19.88866 -1.245271 4.993891 1.37525 7.534073 -36.21924 5.886637 -0 15.20879 -0 -6.913007 -4.250428 -0.9448166 -6.085502 13.61734 -17.60983 -0 8.647021 -0 5.385669 -23.76711 20.41935 -0.6523425 -1.985435 5.034076 2.9542 10.08768 -8.627933 0.9858978 19.47341 7.472894 3.999861 -26.91099 9.088348 5.584369 -18.48736 11.64553 88.75977 35.48525 -23.78854 -0 0 13.04825 -6.786937 9.042484 3.948682 7.129771 -22.69772 -1.680214 -92.74467 25.28406 21.64479 0 0 -22.85097 8.883183 12.67075 5.613257
2.300486 99.8317 24.47041 -1.733121 5.192623 2.159224 8.181986 -36.7512 5.563716 -0 13.87133 -0 -7.39434 -2.411214 -0.7059632 -5.713544 14.60828 -16.72166 -0 11.82172 -0 3.521723 -23.08317 18.33589 -0.5603366 -1.87218 5.023673 2.952484 10.13189 -8.680651 0.9366032 19.37095 7.531748 4.076298 -26.85471 8.98468 5.54238 -18.3894 11.67084 88.92983 35.50816 -23.98489 -0 0 12.77485 -7.077795 9.240868 4.095966 7.157169 -22.85443 -1.762087 -92.455 25.17829 21.35842 0 0 -23.37423 8.780974 12.29549 5.809823
2.560525 99.57901 29.67337 -2.496707 4.883143 3.025533 9.079073 -35.70289 5.554367 -0 14.48445 -0 -8.028298 -1.361924 -0.7316048 -4.985665 15.24806 -15.76818 -0 17.12756 -0 0.5247004 -20.95053 15.56311 -0.4885089 -1.723707 5.013522 2.912944 10.1948 -8.691083 0.8852415 19.33483 7.545297 4.130593 -26.64646 8.811517 5.520265 -18.24448 11.69457 89.00037 35.49041 -24.00416 -0 0 12.49804 -7.564153 9.523391 4.352884 7.130313 -22.95514 -1.835798 -92.13309 25.02015 21.00926 0 0 -23.62603 8.579528 11.95132 6.025425
2.864889 99.81428 35.39872 -3.377378 4.198432 3.681265 9.965556 -32.95674 5.755987 -0 16.33493 -0 -8.77291 -1.54976 -0.9778966 -3.999102 14.73814 -14.61528 -0 24.94904 -0 -2.946106 -17.07007 12.44063 -0.4335545 -1.541191 5.016085 2.824046 10.2799 -8.655361 0.8314576 19.36832 7.51007 4.165137 -26.27354 8.560003 5.516156 -18.06458 11.716 88.97284 35.42333 -23.84869 -0 0 12.24861 -8.264687 9.885089 4.722067 7.048428 -23.00321 -1.905937 -91.80981 24.85401 20.64318 0 0 -23.60595 8.220526 11.645 6.342253
3.231436 100.5606 41.4764 -3.913486 3.471745 3.863497 10.24428 -28.77906 5.752743 -0 17.57252 -0 -9.440649 -2.796163 -1.22643 -3.150052 12.49695 -13.13015 -0 34.66449 -0 -5.732603 -12.19037 9.723212 -0.3932994 -1.342462 5.04863 2.679264 10.3859 -8.576159 0.7762598 19.46073 7.433855 4.187307 -25.75819 8.240991 5.524421 -17.88559 11.73527 88.86423 35.31809 -23.55192 -0 0 12.08121 -9.162072 10.30109 5.186252 6.923045 -23.01196 -1.978448 -91.53366 24.74631 20.34344 0 0 -23.37277 7.662435 11.38528 6.851551
3.627619 101.7266 47.71038 -3.715877 2.773807 3.55484 9.635265 -23.61232 5.325861 -0 17.16031 -0 -9.770223 -4.430656 -1.331987 -2.798704 8.738946 -11.48905 -0 44.6172 -0 -7.157341 -7.944684 8.240055 -0.3786018 -1.148379 5.125632 2.478159 10.50607 -8.451195 0.7227533 19.60539 7.325764 4.198676 -25.13133 7.877642 5.539693 -17.7488 11.7534 88.66802 35.20659 -23.11033 -0 0 12.05235 -10.23474 10.74829 5.736213 6.759418 -22.97845 -2.050808 -91.33758 24.7316 20.17953 0 0 -22.96578 6.913795 11.18189 7.57473
4.008453 103.1744 53.87033 -2.871541 1.815651 2.952002 8.435823 -17.79357 4.609994 -0 15.74338 -0 -9.835746 -6.178139 -1.268108 -2.935295 3.86848 -10.17697 -0 53.17162 -0 -7.396848 -5.415286 8.230247 -0.4214205 -0.9690726 5.256815 2.224639 10.62727 -8.259282 0.6767881 19.81892 7.181801 4.18433 -24.40624 7.492747 5.553005 -17.68537 11.77087 88.31602 35.11655 -22.41561 -0 0 12.20819 -11.48644 11.20403 6.397145 6.538224 -22.85513 -2.10386 -91.22808 24.77618 20.17995 0 0 -22.31019 6.039823 11.04217 8.41581
4.363393 104.7388 59.75287 -1.680284 0.5325675 2.318709 6.967773 -11.63071 3.750389 -0 13.82261 -0 -9.727194 -7.938362 -0.952113 -3.296395 -2.041487 -9.353932 -0 59.25866 -0 -6.943972 -4.549844 9.153527 -0.5609192 -0.8149781 5.452715 1.9299 10.72752 -7.970731 0.6434152 20.12227 6.992348 4.122356 -23.60803 7.11 5.543062 -17.72762 11.78763 87.70911 35.05625 -21.31172 -0 0 12.59405 -12.90971 11.61089 7.20577 6.231566 -22.57143 -2.109957 -91.21576 24.81863 20.37619 0 0 -21.28037 5.132701 10.96182 9.222514
4.685206 106.1818 65.30935 -0.4190638 -0.9721151 1.816887 5.515611 -5.55245 3.109642 -0 11.60894 -0 -9.003807 -9.252736 -0.5319311 -3.386647 -8.531382 -8.588983 -0 61.96175 -0 -6.272825 -4.640086 10.55566 -0.8145441 -0.7037375 5.722212 1.611219 10.78468 -7.576461 0.6182883 20.49882 6.770582 4.011048 -22.7927 6.751131 5.475881 -17.91099 11.8071 86.8043 35.0286 -19.73563 -0 0 13.23225 -14.49661 11.9061 8.193522 5.837327 -22.09979 -2.062326 -91.29851 24.81807 20.80123 0 0 -19.90596 4.255058 10.88329 9.91752
4.952298 107.204 70.62832 0.5555593 -2.688683 1.420075 4.542977 -0.0254792 2.996035 -0 9.644769 -0 -7.615931 -9.935669 -0.3894302 -2.619652 -14.56835 -7.307956 -0 60.29176 -0 -5.631214 -4.956159 12.43231 -1.170877 -0.6444475 6.075052 1.278334 10.79378 -7.091845 0.5884403 20.88907 6.560661 3.875368 -22.00721 6.428419 5.314569 -18.26799 11.8401 85.63507 35.0431 -17.74076 -0 0 14.11715 -16.32609 12.1041 9.407698 5.380149 -21.47365 -1.991116 -91.42173 24.74779 21.45246 0 0 -18.43232 3.403937 10.67023 10.56195
5.180628 107.5663 75.82167 0.9394549 -4.413825 0.9992084 4.38117 4.704985 3.083768 -0 8.22589 -0 -6.45405 -10.64114 -0.6318712 -0.8926874 -19.29224 -5.410198 -0 53.67356 -0 -4.89999 -5.25418 14.63283 -1.605467 -0.6366566 6.527298 0.9338568 10.75679 -6.532052 0.5479191 21.22538 6.414373 3.741184 -21.29301 6.166957 5.033556 -18.83254 11.89721 84.23671 35.10381 -15.3956 -0 0 15.26287 -18.49304 12.26898 10.87445 4.887976 -20.72693 -1.931944 -91.53806 24.586 22.33954 0 0 -17.12417 2.564792 10.19476 11.24918
5.44377 107.2443 81.00616 0.7211743 -5.603697 0.4627459 4.803409 8.665344 3.010628 -0 7.477829 -0 -5.996023 -12.14694 -0.965305 1.193205 -22.58117 -3.464023 -0 43.30673 -0 -4.083752 -5.491903 16.60363 -2.075389 -0.6820806 7.068595 0.597163 10.66164 -5.915994 0.5052603 21.4571 6.366821 3.620011 -20.72961 6.018164 4.639162 -19.59639 11.97372 82.64851 35.17806 -12.80306 -0 0 16.65747 -20.89385 12.41765 12.50295 4.397588 -19.87528 -1.891372 -91.66908 24.32022 23.47576 0 0 -16.09457 1.795085 9.460797 11.94923
5.819375 106.426 86.31945 0.1897095 -5.822941 -0.1673408 5.190697 12.03868 2.964879 -0 7.583463 -0 -5.571741 -14.3768 -1.062789 2.86177 -24.94738 -2.181925 -0 32.15688 -0 -3.743036 -5.619886 17.92241 -2.507209 -0.7740939 7.630318 0.3084578 10.50289 -5.295936 0.470239 21.56412 6.411552 3.517935 -20.39226 6.002167 4.182138 -20.44876 12.04871 81.01629 35.18163 -10.21961 -0 0 18.15473 -23.17409 12.49117 14.0726 3.969403 -18.9784 -1.852432 -91.85626 23.95313 24.75997 0 0 -15.31151 1.203439 8.605399 12.51072
6.342467 105.3499 91.89885 -0.2965755 -5.225814 -0.8096063 5.101332 15.00126 3.12717 -0 8.597589 -0 -4.560218 -16.38934 -0.7946738 3.641031 -26.77472 -1.889629 -0 22.93818 -0 -4.307134 -5.779814 18.6915 -2.827692 -0.8814772 8.129335 0.08921728 10.31856 -4.746511 0.4462173 21.56204 6.499467 3.44278 -20.256 6.065376 3.734822 -21.23019 12.1039 79.58827 35.03205 -7.999643 -0 0 19.5363 -25.00031 12.44935 15.36793 3.663322 -18.15926 -1.808185 -92.08348 23.51612 25.97342 0 0 -14.71814 0.8344709 7.772159 12.8449
7.003907 104.2111 97.85847 -0.4815829 -4.413285 -1.409822 4.43257 17.58468 3.333462 -0 10.61053 -0 -3.154398 -17.01726 -0.2539936 3.356851 -27.94482 -2.548841 -0 17.05382 -0 -5.461456 -6.176507 19.23486 -3.002463 -0.9602052 8.513849 -0.07146143 10.17016 -4.327268 0.4397087 21.49464 6.575927 3.396591 -20.21673 6.138976 3.365018 -21.82097 12.13286 78.57824 34.72382 -6.417089 -0 0 20.63465 -26.24982 12.34764 16.26697 3.501565 -17.53555 -1.770556 -92.2943 23.08393 26.90908 0 0 -14.28724 0.6421245 7.069439 13.00049
